<?xml version="1.0" encoding="utf-8"?>
<!-- Generator: Adobe Illustrator 19.2.1, SVG Export Plug-In . SVG Version: 6.00 Build 0)  -->
<svg version="1.1" id="layer" xmlns="http://www.w3.org/2000/svg" xmlns:xlink="http://www.w3.org/1999/xlink" x="0px" y="0px"
	 viewBox="0 0 652 652" style="enable-background:new 0 0 652 652;" xml:space="preserve">
<style type="text/css">
	.st0{fill:#6CCEF5;}
	.st1{fill:url(#SVGID_1_);}
	.st2{fill:url(#SVGID_2_);}
	.st3{fill:url(#SVGID_3_);}
	.st4{fill:url(#SVGID_4_);}
	.st5{fill:#64C3A4;}
	.st6{fill:url(#SVGID_5_);}
	.st7{fill:url(#SVGID_6_);}
	.st8{fill:url(#SVGID_7_);}
	.st9{fill:url(#SVGID_8_);}
</style>
<g id="Pantone_P_115-5_C">
	<g id="Pantone_P_115-5_C_">
		<path class="st0" d="M87.9,286.6L87.9,286.6c8.9,0,16.2,7.2,16.2,16.2v32.4c0,8.9-7.2,16.2-16.2,16.2h0c-8.9,0-16.2-7.2-16.2-16.2
			v-32.4C71.7,293.8,79,286.6,87.9,286.6z"/>
		<circle class="st0" cx="41.2" cy="302.8" r="16.2"/>
		<path class="st0" d="M134.6,286.6c-8.9,0-16.1,7.2-16.2,16.2v80.9c0,8.9,7.2,16.2,16.2,16.2c8.9,0,16.2-7.2,16.2-16.2v-80.9
			C150.8,293.8,143.6,286.6,134.6,286.6z"/>
		<path class="st0" d="M181.4,286.6c-8.9,0-16.2,7.2-16.2,16.2v32.4c0.3,8.9,7.8,15.9,16.7,15.6c8.5-0.3,15.3-7.1,15.6-15.6v-32.4
			C197.5,293.8,190.3,286.6,181.4,286.6z"/>
	</g>
</g>
<g id="Pantone_2726_C">
	
		<linearGradient id="SVGID_1_" gradientUnits="userSpaceOnUse" x1="87.9211" y1="300.6003" x2="87.9211" y2="365.2943" gradientTransform="matrix(1 0 0 -1 0 651.89)">
		<stop  offset="0" style="stop-color:#5061AC"/>
		<stop  offset="0.75" style="stop-color:#6CCEF5;stop-opacity:0"/>
	</linearGradient>
	<path class="st1" d="M87.9,286.6L87.9,286.6c8.9,0,16.2,7.2,16.2,16.2v32.4c0,8.9-7.2,16.2-16.2,16.2h0c-8.9,0-16.2-7.2-16.2-16.2
		v-32.4C71.7,293.8,79,286.6,87.9,286.6z"/>
	
		<linearGradient id="SVGID_2_" gradientUnits="userSpaceOnUse" x1="41.1788" y1="332.9568" x2="41.1788" y2="365.2943" gradientTransform="matrix(1 0 0 -1 0 651.89)">
		<stop  offset="0" style="stop-color:#5061AC"/>
		<stop  offset="0.75" style="stop-color:#6CCEF5;stop-opacity:0"/>
	</linearGradient>
	<circle class="st2" cx="41.2" cy="302.8" r="16.2"/>
	
		<linearGradient id="SVGID_3_" gradientUnits="userSpaceOnUse" x1="134.6352" y1="252.0751" x2="134.6352" y2="365.2943" gradientTransform="matrix(1 0 0 -1 0 651.89)">
		<stop  offset="0" style="stop-color:#5061AC"/>
		<stop  offset="0.75" style="stop-color:#6CCEF5;stop-opacity:0"/>
	</linearGradient>
	<path class="st3" d="M134.6,286.6c-8.9,0-16.2,7.2-16.2,16.2v80.9c0.3,8.9,7.8,15.9,16.7,15.6c8.5-0.3,15.3-7.1,15.6-15.6v-80.9
		C150.8,293.8,143.6,286.6,134.6,286.6z"/>
	
		<linearGradient id="SVGID_4_" gradientUnits="userSpaceOnUse" x1="181.3681" y1="300.6003" x2="181.3681" y2="365.2943" gradientTransform="matrix(1 0 0 -1 0 651.89)">
		<stop  offset="0" style="stop-color:#5061AC"/>
		<stop  offset="0.75" style="stop-color:#6CCEF5;stop-opacity:0"/>
	</linearGradient>
	<path class="st4" d="M181.4,286.6c-8.9,0-16.1,7.3-16.2,16.2v32.4c0.3,8.9,7.8,15.9,16.7,15.6c8.5-0.3,15.3-7.1,15.6-15.6v-32.4
		C197.5,293.8,190.3,286.6,181.4,286.6z"/>
</g>
<g id="Pantone_P_3385_C">
	<g id="Pantone_P_3385_C_">
		<path class="st5" d="M228.1,254.2c-8.9,0-16.1,7.3-16.2,16.2v32.4c0.3,8.9,7.8,15.9,16.7,15.6c8.5-0.3,15.3-7.1,15.6-15.6v-32.4
			C244.2,261.5,237,254.3,228.1,254.2z"/>
		<path class="st5" d="M274.8,205.7L274.8,205.7c8.9,0,16.2,7.2,16.2,16.2v80.9c0,8.9-7.2,16.2-16.2,16.2h0
			c-8.9,0-16.2-7.2-16.2-16.2v-80.9C258.7,213,265.9,205.7,274.8,205.7z"/>
		<path class="st5" d="M321.6,254.2c-8.9,0-16.1,7.2-16.2,16.2v32.4c0,8.9,7.2,16.2,16.2,16.2c8.9,0,16.2-7.2,16.2-16.2v-32.4
			C337.7,261.5,330.5,254.3,321.6,254.2z"/>
		<path class="st5" d="M368.4,286.6c-8.9,0-16.2,7.2-16.2,16.2s7.2,16.2,16.2,16.2s16.2-7.2,16.2-16.2
			C384.5,293.8,377.3,286.6,368.4,286.6z"/>
	</g>
</g>
<g id="Pantone_3395_C">
	
		<linearGradient id="SVGID_5_" gradientUnits="userSpaceOnUse" x1="228.101" y1="332.9568" x2="228.101" y2="397.6508" gradientTransform="matrix(1 0 0 -1 0 651.89)">
		<stop  offset="0" style="stop-color:#40B981"/>
		<stop  offset="1" style="stop-color:#77C7A0;stop-opacity:0"/>
	</linearGradient>
	<path class="st6" d="M228.1,254.2c-8.9,0-16.1,7.3-16.2,16.2v32.4c0.3,8.9,7.8,15.9,16.7,15.6c8.5-0.3,15.3-7.1,15.6-15.6v-32.4
		C244.2,261.5,237,254.3,228.1,254.2z"/>
	
		<linearGradient id="SVGID_6_" gradientUnits="userSpaceOnUse" x1="274.8339" y1="332.9568" x2="274.8339" y2="446.1761" gradientTransform="matrix(1 0 0 -1 0 651.89)">
		<stop  offset="0" style="stop-color:#40B981"/>
		<stop  offset="1" style="stop-color:#77C7A0;stop-opacity:0"/>
	</linearGradient>
	<path class="st7" d="M274.8,205.7L274.8,205.7c8.9,0,16.2,7.2,16.2,16.2v80.9c0,8.9-7.2,16.2-16.2,16.2h0
		c-8.9,0-16.2-7.2-16.2-16.2v-80.9C258.7,213,265.9,205.7,274.8,205.7z"/>
	
		<linearGradient id="SVGID_7_" gradientUnits="userSpaceOnUse" x1="321.5479" y1="332.9568" x2="321.5479" y2="397.6508" gradientTransform="matrix(1 0 0 -1 0 651.89)">
		<stop  offset="0" style="stop-color:#40B981"/>
		<stop  offset="1" style="stop-color:#77C7A0;stop-opacity:0"/>
	</linearGradient>
	<path class="st8" d="M321.6,254.2c-8.9,0-16.2,7.2-16.2,16.2v32.4c0.3,8.9,7.8,15.9,16.7,15.6c8.5-0.3,15.3-7.1,15.6-15.6v-32.4
		C337.7,261.5,330.5,254.3,321.6,254.2z"/>
	
		<linearGradient id="SVGID_8_" gradientUnits="userSpaceOnUse" x1="368.2903" y1="332.9568" x2="368.2903" y2="365.2943" gradientTransform="matrix(1 0 0 -1 0 651.89)">
		<stop  offset="0" style="stop-color:#40B981"/>
		<stop  offset="1" style="stop-color:#77C7A0;stop-opacity:0"/>
	</linearGradient>
	<path class="st9" d="M368.3,286.6c-8.9,0-16.2,7.3-16.1,16.2c0,8.9,7.3,16.2,16.2,16.1c8.9,0,16.1-7.2,16.1-16.2
		C384.4,293.8,377.2,286.6,368.3,286.6z"/>
</g>
<g id="Black">
	<g id="Black-2">
		<path d="M260.6,411.6c1.1,1.1,1.2,2.9,0.1,4.1c-0.1,0.1-0.1,0.1-0.2,0.2c-5.5,4.8-12.7,7.3-20,7.1c-16.8,0-30.8-10.1-30.8-30.7
			s14-30.7,30.8-30.7c6.8-0.2,13.5,2.1,18.7,6.5c1.2,1,1.3,2.8,0.3,4c0,0-0.1,0.1-0.1,0.1l-5.2,5.5c-1,1-2.6,1.2-3.8,0.4
			c-2.8-2-6.2-3-9.7-3.1c-9.6,0-16.7,7.1-16.7,17.2c0,11,7.5,17,16.5,17c3.9,0.1,7.7-1,10.8-3.2c1.1-0.9,2.7-0.8,3.7,0.2
			L260.6,411.6z"/>
		<path d="M327.9,392.2c0,16.7-11.3,30.2-30.2,30.2c-18.9,0-30.1-13.5-30.1-30.2s11.5-30.2,30-30.2C316,362,327.9,375.6,327.9,392.2
			z M281.9,392.2c0,8.8,5.3,17,15.7,17c10.5,0,15.8-8.2,15.8-17c0-8.8-6.1-17.2-15.8-17.2C287.3,375,281.9,383.5,281.9,392.2z"/>
		<path d="M353.3,346.9c0,11.2-17,11.2-17,0C336.3,335.7,353.3,335.7,353.3,346.9z M337.7,366.4v51.2c0,1.9,1.6,3.5,3.5,3.5l0,0h7.4
			c1.9,0,3.5-1.6,3.5-3.5c0,0,0,0,0,0v-51.2c0-1.9-1.6-3.5-3.5-3.5l0,0h-7.4C339.3,363,337.7,364.5,337.7,366.4L337.7,366.4z"/>
		<path d="M410.5,421.1c-1.6,0-2.8-1.3-2.8-2.9v-27.5c0-8-3.9-14.2-11.5-15.3c-8.5-1.1-16.2,5-17.2,13.4c-0.1,0.7-0.1,1.4-0.1,2.1
			v27.3c0,1.6-1.3,2.9-2.9,2.9l0,0h-8.5c-1.6,0-2.9-1.3-2.9-2.9l0,0v-52.3c0-1.6,1.3-2.9,2.9-2.9l0,0h7.4c1.4,0,2.7,1.1,2.8,2.5l0,0
			c0.2,1.6,1.7,2.6,3.2,2.4c0.5-0.1,0.9-0.3,1.3-0.5c4.3-3.4,9.6-5.3,15.1-5.3c13.6,0,24.5,10.2,24.5,28.4v27.6
			c0,1.6-1.3,2.9-2.8,2.9c0,0,0,0,0,0L410.5,421.1z"/>
		<path d="M481.6,411.4c1.2,1.2,1.3,3.1,0.1,4.4c-0.1,0.1-0.2,0.2-0.2,0.2c-5.5,4.6-12.6,7.1-19.8,6.9c-16.8,0-30.8-10.1-30.8-30.7
			s14-30.7,30.8-30.7c6.7-0.2,13.2,2,18.4,6.3c1.4,1.1,1.6,3,0.5,4.4c-0.1,0.1-0.1,0.1-0.2,0.2l-4.9,5.2c-1.1,1.1-2.8,1.3-4.1,0.4
			c-2.8-1.9-6.1-2.9-9.4-2.9c-9.6,0-16.7,7.1-16.7,17.2c0,11,7.5,17,16.5,17c3.8,0.1,7.6-1,10.8-3.2c1.2-0.8,2.9-0.7,3.9,0.4
			L481.6,411.4z"/>
		<path d="M538.5,363.2h9.2c1.3,0,2.3,1,2.3,2.3v53.3c0,1.3-1,2.3-2.3,2.3h-9c-1.3,0-2.3-1-2.4-2.2v-0.4c-0.1-1.3-1.2-2.2-2.5-2.1
			c-0.5,0-1,0.3-1.4,0.6c-4.3,3.6-9.7,5.6-15.4,5.8c-17.1,0.1-29.8-10.5-29.8-30.8c0-20,13.2-30.4,30.2-30.3
			c5.5-0.1,10.8,1.8,15,5.2c1,0.8,2.5,0.7,3.3-0.3c0.3-0.4,0.5-0.8,0.5-1.3l0,0C536.2,364.1,537.3,363.1,538.5,363.2z M501.5,392.1
			c0,12.1,9.2,18.9,20,17.4c19.8-2.6,19.8-32.2,0-34.8C510.7,373.4,501.5,380,501.5,392.1z"/>
		<path d="M562.1,443.1v-77.7c0-1.2,1-2.2,2.2-2.2h9.2c1.1,0,2,0.8,2.2,1.9l0.2,1.2c0.1,1.2,1.2,2.1,2.4,1.9
			c0.4-0.1,0.9-0.2,1.2-0.5c4.4-3.8,10-5.8,15.7-5.8c17.8,0,29.7,13.2,29.7,30.3s-10.7,30.3-29.3,30.3c-5.6,0.1-11.1-1.5-15.7-4.5
			c-1-0.7-2.4-0.5-3.1,0.5c-0.3,0.4-0.4,0.8-0.4,1.3V443c0,1.2-1,2.2-2.2,2.2h-9.9C563.2,445.2,562.2,444.3,562.1,443.1z
			 M610.7,392.2c0-9.1-6.1-16.5-16.4-16.5c-8.7-0.4-16,6.3-16.4,15c0,0.5,0,1,0,1.5c0.3,9.1,7.9,16.2,17,15.9
			C603.5,407.8,610.4,400.9,610.7,392.2L610.7,392.2z"/>
	</g>
</g>
</svg>
